<svg xmlns="http://www.w3.org/2000/svg" viewBox="0 0 880 490" width="880" height="490" role="img">
<title>Same-model grok-4.6 in-house PR suite · run-20260830-054427 · lower-left is better</title>
<rect width="880" height="490" fill="#ffffff"/>
<text x="20" y="22" font-size="16" font-weight="700" fill="#0f172a" font-family="ui-sans-serif, system-ui, sans-serif">Same-model grok-4.6 in-house PR suite · run-20260830-054427 · lower-left is better</text>
<text x="20" y="40" font-size="11" fill="#64748b" font-family="ui-sans-serif, system-ui, sans-serif">6 shipped-PR fixtures. graff-dev 6/6, grok-build 5/6 (atomic-symlink timed out), OpenCode 0/6. Mixed-model dsh/zen are not on this chart.</text>
<rect x="72" y="62" width="340" height="280" fill="#fafcfb" stroke="#d1d5db"/>
<rect x="500" y="62" width="340" height="280" fill="#fafcfb" stroke="#d1d5db"/>
<text x="72" y="56" font-size="13" font-weight="600" fill="#0f172a" font-family="ui-sans-serif, system-ui, sans-serif">wall vs list$</text>
<text x="500" y="56" font-size="13" font-weight="600" fill="#0f172a" font-family="ui-sans-serif, system-ui, sans-serif">calls vs list$</text>
<text x="242" y="376" text-anchor="middle" font-size="12" fill="#334155" font-family="ui-sans-serif, system-ui, sans-serif">wall (s) →</text>
<text x="670" y="376" text-anchor="middle" font-size="12" fill="#334155" font-family="ui-sans-serif, system-ui, sans-serif">tool calls →</text>
<line x1="72" y1="342.0" x2="412" y2="342.0" stroke="#e5e7eb"/>
<line x1="500" y1="342.0" x2="840" y2="342.0" stroke="#e5e7eb"/>
<text x="64" y="346.0" text-anchor="end" font-size="11" fill="#64748b" font-family="ui-sans-serif, system-ui, sans-serif">$0.000</text>
<text x="492" y="346.0" text-anchor="end" font-size="11" fill="#64748b" font-family="ui-sans-serif, system-ui, sans-serif">$0.000</text>
<line x1="72" y1="278.0" x2="412" y2="278.0" stroke="#e5e7eb"/>
<line x1="500" y1="278.0" x2="840" y2="278.0" stroke="#e5e7eb"/>
<text x="64" y="282.0" text-anchor="end" font-size="11" fill="#64748b" font-family="ui-sans-serif, system-ui, sans-serif">$0.154</text>
<text x="492" y="282.0" text-anchor="end" font-size="11" fill="#64748b" font-family="ui-sans-serif, system-ui, sans-serif">$0.154</text>
<line x1="72" y1="214.0" x2="412" y2="214.0" stroke="#e5e7eb"/>
<line x1="500" y1="214.0" x2="840" y2="214.0" stroke="#e5e7eb"/>
<text x="64" y="218.0" text-anchor="end" font-size="11" fill="#64748b" font-family="ui-sans-serif, system-ui, sans-serif">$0.309</text>
<text x="492" y="218.0" text-anchor="end" font-size="11" fill="#64748b" font-family="ui-sans-serif, system-ui, sans-serif">$0.309</text>
<line x1="72" y1="150.0" x2="412" y2="150.0" stroke="#e5e7eb"/>
<line x1="500" y1="150.0" x2="840" y2="150.0" stroke="#e5e7eb"/>
<text x="64" y="154.0" text-anchor="end" font-size="11" fill="#64748b" font-family="ui-sans-serif, system-ui, sans-serif">$0.463</text>
<text x="492" y="154.0" text-anchor="end" font-size="11" fill="#64748b" font-family="ui-sans-serif, system-ui, sans-serif">$0.463</text>
<line x1="72" y1="86.0" x2="412" y2="86.0" stroke="#e5e7eb"/>
<line x1="500" y1="86.0" x2="840" y2="86.0" stroke="#e5e7eb"/>
<text x="64" y="90.0" text-anchor="end" font-size="11" fill="#64748b" font-family="ui-sans-serif, system-ui, sans-serif">$0.617</text>
<text x="492" y="90.0" text-anchor="end" font-size="11" fill="#64748b" font-family="ui-sans-serif, system-ui, sans-serif">$0.617</text>
<line x1="72.0" y1="62" x2="72.0" y2="342" stroke="#e5e7eb"/>
<text x="72.0" y="358" text-anchor="middle" font-size="11" fill="#64748b" font-family="ui-sans-serif, system-ui, sans-serif">155s</text>
<line x1="157.0" y1="62" x2="157.0" y2="342" stroke="#e5e7eb"/>
<text x="157.0" y="358" text-anchor="middle" font-size="11" fill="#64748b" font-family="ui-sans-serif, system-ui, sans-serif">243s</text>
<line x1="242.0" y1="62" x2="242.0" y2="342" stroke="#e5e7eb"/>
<text x="242.0" y="358" text-anchor="middle" font-size="11" fill="#64748b" font-family="ui-sans-serif, system-ui, sans-serif">332s</text>
<line x1="327.0" y1="62" x2="327.0" y2="342" stroke="#e5e7eb"/>
<text x="327.0" y="358" text-anchor="middle" font-size="11" fill="#64748b" font-family="ui-sans-serif, system-ui, sans-serif">420s</text>
<line x1="412.0" y1="62" x2="412.0" y2="342" stroke="#e5e7eb"/>
<text x="412.0" y="358" text-anchor="middle" font-size="11" fill="#64748b" font-family="ui-sans-serif, system-ui, sans-serif">508s</text>
<line x1="519.1" y1="62" x2="519.1" y2="342" stroke="#e5e7eb"/>
<text x="519.1" y="358" text-anchor="middle" font-size="11" fill="#64748b" font-family="ui-sans-serif, system-ui, sans-serif">30</text>
<line x1="535.0" y1="62" x2="535.0" y2="342" stroke="#e5e7eb"/>
<text x="535.0" y="358" text-anchor="middle" font-size="11" fill="#64748b" font-family="ui-sans-serif, system-ui, sans-serif">31</text>
<line x1="550.8" y1="62" x2="550.8" y2="342" stroke="#e5e7eb"/>
<text x="550.8" y="358" text-anchor="middle" font-size="11" fill="#64748b" font-family="ui-sans-serif, system-ui, sans-serif">32</text>
<line x1="566.7" y1="62" x2="566.7" y2="342" stroke="#e5e7eb"/>
<text x="566.7" y="358" text-anchor="middle" font-size="11" fill="#64748b" font-family="ui-sans-serif, system-ui, sans-serif">33</text>
<line x1="582.6" y1="62" x2="582.6" y2="342" stroke="#e5e7eb"/>
<text x="582.6" y="358" text-anchor="middle" font-size="11" fill="#64748b" font-family="ui-sans-serif, system-ui, sans-serif">34</text>
<line x1="598.5" y1="62" x2="598.5" y2="342" stroke="#e5e7eb"/>
<text x="598.5" y="358" text-anchor="middle" font-size="11" fill="#64748b" font-family="ui-sans-serif, system-ui, sans-serif">35</text>
<line x1="614.4" y1="62" x2="614.4" y2="342" stroke="#e5e7eb"/>
<text x="614.4" y="358" text-anchor="middle" font-size="11" fill="#64748b" font-family="ui-sans-serif, system-ui, sans-serif">36</text>
<line x1="630.3" y1="62" x2="630.3" y2="342" stroke="#e5e7eb"/>
<text x="630.3" y="358" text-anchor="middle" font-size="11" fill="#64748b" font-family="ui-sans-serif, system-ui, sans-serif">37</text>
<line x1="646.2" y1="62" x2="646.2" y2="342" stroke="#e5e7eb"/>
<text x="646.2" y="358" text-anchor="middle" font-size="11" fill="#64748b" font-family="ui-sans-serif, system-ui, sans-serif">38</text>
<line x1="662.1" y1="62" x2="662.1" y2="342" stroke="#e5e7eb"/>
<text x="662.1" y="358" text-anchor="middle" font-size="11" fill="#64748b" font-family="ui-sans-serif, system-ui, sans-serif">39</text>
<line x1="677.9" y1="62" x2="677.9" y2="342" stroke="#e5e7eb"/>
<text x="677.9" y="358" text-anchor="middle" font-size="11" fill="#64748b" font-family="ui-sans-serif, system-ui, sans-serif">40</text>
<line x1="693.8" y1="62" x2="693.8" y2="342" stroke="#e5e7eb"/>
<text x="693.8" y="358" text-anchor="middle" font-size="11" fill="#64748b" font-family="ui-sans-serif, system-ui, sans-serif">41</text>
<line x1="709.7" y1="62" x2="709.7" y2="342" stroke="#e5e7eb"/>
<text x="709.7" y="358" text-anchor="middle" font-size="11" fill="#64748b" font-family="ui-sans-serif, system-ui, sans-serif">42</text>
<line x1="725.6" y1="62" x2="725.6" y2="342" stroke="#e5e7eb"/>
<text x="725.6" y="358" text-anchor="middle" font-size="11" fill="#64748b" font-family="ui-sans-serif, system-ui, sans-serif">43</text>
<line x1="741.5" y1="62" x2="741.5" y2="342" stroke="#e5e7eb"/>
<text x="741.5" y="358" text-anchor="middle" font-size="11" fill="#64748b" font-family="ui-sans-serif, system-ui, sans-serif">44</text>
<line x1="757.4" y1="62" x2="757.4" y2="342" stroke="#e5e7eb"/>
<text x="757.4" y="358" text-anchor="middle" font-size="11" fill="#64748b" font-family="ui-sans-serif, system-ui, sans-serif">45</text>
<line x1="773.3" y1="62" x2="773.3" y2="342" stroke="#e5e7eb"/>
<text x="773.3" y="358" text-anchor="middle" font-size="11" fill="#64748b" font-family="ui-sans-serif, system-ui, sans-serif">46</text>
<line x1="789.2" y1="62" x2="789.2" y2="342" stroke="#e5e7eb"/>
<text x="789.2" y="358" text-anchor="middle" font-size="11" fill="#64748b" font-family="ui-sans-serif, system-ui, sans-serif">47</text>
<line x1="805.0" y1="62" x2="805.0" y2="342" stroke="#e5e7eb"/>
<text x="805.0" y="358" text-anchor="middle" font-size="11" fill="#64748b" font-family="ui-sans-serif, system-ui, sans-serif">48</text>
<line x1="820.9" y1="62" x2="820.9" y2="342" stroke="#e5e7eb"/>
<text x="820.9" y="358" text-anchor="middle" font-size="11" fill="#64748b" font-family="ui-sans-serif, system-ui, sans-serif">49</text>
<circle cx="270.4" cy="266.6" r="6.5" fill="#059669" stroke="#047857" stroke-width="1.4"/>
<text x="280.4" y="258.6" font-size="11" font-weight="600" fill="#047857" font-family="ui-sans-serif, system-ui, sans-serif">graff-dev  361.1s · $0.1818</text>
<circle cx="519.1" cy="266.6" r="6.5" fill="#059669" stroke="#047857" stroke-width="1.4"/>
<text x="529.1" y="258.6" font-size="11" font-weight="600" fill="#047857" font-family="ui-sans-serif, system-ui, sans-serif">graff-dev  30 · $0.1818</text>
<circle cx="28" cy="410" r="6.5" fill="#059669" stroke="#047857" stroke-width="1.4"/>
<text x="40" y="414" font-size="12" fill="#0f172a" font-family="ui-sans-serif, system-ui, sans-serif">graff-dev — 6/6 · on wall/$ + calls/$</text>
<circle cx="359.6" cy="162.3" r="6.5" fill="#334155" stroke="#1e293b" stroke-width="1.4"/>
<text x="369.6" y="154.3" font-size="11" font-weight="600" fill="#1e293b" font-family="ui-sans-serif, system-ui, sans-serif">grok  453.9s · $0.4332</text>
<circle cx="519.1" cy="162.3" r="6.5" fill="#334155" stroke="#1e293b" stroke-width="1.4"/>
<text x="529.1" y="154.3" font-size="11" font-weight="600" fill="#1e293b" font-family="ui-sans-serif, system-ui, sans-serif">grok  30 · $0.4332</text>
<circle cx="28" cy="430" r="6.5" fill="#334155" stroke="#1e293b" stroke-width="1.4"/>
<text x="40" y="434" font-size="12" fill="#0f172a" font-family="ui-sans-serif, system-ui, sans-serif">grok — 5/6 · interior</text>
<circle cx="98.2" cy="119.4" r="6.5" fill="#2563eb" stroke="#1d4ed8" stroke-width="1.4"/>
<text x="108.2" y="111.4" font-size="11" font-weight="600" fill="#1d4ed8" font-family="ui-sans-serif, system-ui, sans-serif">opencode  182.0s · $0.5366</text>
<circle cx="820.9" cy="119.4" r="6.5" fill="#2563eb" stroke="#1d4ed8" stroke-width="1.4"/>
<text x="830.9" y="111.4" font-size="11" font-weight="600" fill="#1d4ed8" font-family="ui-sans-serif, system-ui, sans-serif">opencode  49 · $0.5366</text>
<circle cx="28" cy="450" r="6.5" fill="#2563eb" stroke="#1d4ed8" stroke-width="1.4"/>
<text x="40" y="454" font-size="12" fill="#0f172a" font-family="ui-sans-serif, system-ui, sans-serif">opencode — 0/6 · on wall/$</text>
</svg>
